<?xml version="1.0" encoding="utf-8"?>
<!-- Generated by IcoMoon.io -->
<!DOCTYPE svg PUBLIC "-//W3C//DTD SVG 1.1//EN" "http://www.w3.org/Graphics/SVG/1.1/DTD/svg11.dtd">
<svg version="1.1" xmlns="http://www.w3.org/2000/svg" xmlns:xlink="http://www.w3.org/1999/xlink" width="32" height="32" viewBox="0 0 32 32">
<path fill="#d7d7d8" d="M3.1 22c0.071-0.348 0.178-0.682 0.317-1v0h26.168c0.138 0.317 0.245 0.652 0.315 1h-26.8zM3 23c0 0.342 0.034 0.677 0.1 1v0h26.8c0.066-0.323 0.1-0.658 0.1-1h-27zM8.101 13c-0.312 0.306-0.596 0.641-0.846 1v0h17.723c0.015-0.165 0.022-0.331 0.022-0.5 0-3.038-2.462-5.5-5.5-5.5-2.203 0-4.103 1.295-4.981 3.165v0c-0.489-0.108-0.997-0.165-1.519-0.165-1.32 0-2.554 0.365-3.608 1h7.215c-0.353-0.213-0.727-0.396-1.118-0.544 0.745-1.458 2.261-2.456 4.010-2.456 2.485 0 4.5 2.015 4.5 4.5 0 0.033-0 0.066-0.001 0.099v0c-0.75-0.383-1.599-0.599-2.499-0.599-1.059 0-2.047 0.299-2.886 0.817-0.217-0.291-0.456-0.564-0.715-0.817h-9.798zM6.674 15c-0.152 0.321-0.281 0.655-0.384 1v0h20.11c-0.183-0.358-0.404-0.693-0.657-1h-19.069zM6.071 17c-0.047 0.327-0.071 0.66-0.071 1v0h20.978c-0.031-0.343-0.093-0.678-0.185-1h-20.722zM5.002 19c-0.379 0.285-0.716 0.621-1 1v0h25.001c-0.285-0.38-0.622-0.717-1.002-1.002v0.002h-22.998zM4 26.003c-0.232-0.309-0.429-0.645-0.585-1.003v0h26.168c-0.156 0.357-0.353 0.692-0.584 1l-24.999 0.003zM4.997 27c0.835 0.628 1.875 1 3.003 1h17.001c1.125 0 2.163-0.372 2.998-1h-23.002zM19.5 4c-0.276 0-0.5 0.216-0.5 0.495v2.009c0 0.274 0.232 0.495 0.5 0.495 0.276 0 0.5-0.216 0.5-0.495v-2.009c0-0.274-0.232-0.495-0.5-0.495v0zM26.233 6.789c-0.195-0.195-0.506-0.201-0.704-0.003l-1.421 1.421c-0.193 0.193-0.186 0.514 0.003 0.704 0.195 0.195 0.506 0.201 0.704 0.003l1.421-1.421c0.193-0.193 0.186-0.514-0.003-0.704v0zM29.022 13.522c0-0.276-0.216-0.5-0.495-0.5h-2.009c-0.274 0-0.495 0.232-0.495 0.5 0 0.276 0.216 0.5 0.495 0.5h2.009c0.274 0 0.495-0.232 0.495-0.5v0zM12.767 6.789c-0.195 0.195-0.201 0.506-0.003 0.704l1.421 1.421c0.193 0.193 0.514 0.186 0.704-0.003 0.195-0.195 0.201-0.506 0.003-0.704l-1.421-1.421c-0.193-0.193-0.514-0.186-0.704 0.003v0z"></path>
</svg>
