<?xml version="1.0" encoding="utf-8"?>
<!-- Generated by IcoMoon.io -->
<!DOCTYPE svg PUBLIC "-//W3C//DTD SVG 1.1//EN" "http://www.w3.org/Graphics/SVG/1.1/DTD/svg11.dtd">
<svg version="1.1" xmlns="http://www.w3.org/2000/svg" xmlns:xlink="http://www.w3.org/1999/xlink" width="32" height="32" viewBox="0 0 32 32">
<path fill="#d7d7d8" d="M25.275 10.495v0 0c1.043 0.985 1.701 2.373 1.724 3.915 1.768 0.771 3.001 2.534 3.001 4.585 0 2.756-2.238 5-4.999 5h-17.001c-2.767 0-4.999-2.239-4.999-5 0-2.051 1.24-3.818 3.012-4.588-0.008-0.136-0.012-0.273-0.012-0.412 0-3.866 3.134-7 7-7 1.129 0 2.196 0.267 3.141 0.743-0.092-0.399-0.141-0.815-0.141-1.243 0-2.577 1.772-4.739 4.163-5.337 0.351-0.088 0.716-0.142 1.091-0.158-0.165 0.468-0.254 0.971-0.254 1.495 0 2.485 2.015 4.5 4.5 4.5 0.524 0 1.027-0.090 1.495-0.254-0.016 0.375-0.070 0.739-0.158 1.091-0.258 1.035-0.81 1.954-1.562 2.664zM24.477 9.869c0.57-0.503 1.011-1.148 1.269-1.88-0.081 0.004-0.163 0.005-0.246 0.005-3.038 0-5.5-2.462-5.5-5.5 0-0.082 0.002-0.164 0.005-0.246-1.751 0.616-3.005 2.284-3.005 4.246 0 0.8 0.209 1.55 0.574 2.201 0.386 0.333 0.734 0.707 1.039 1.116 0.839-0.518 1.828-0.817 2.886-0.817 1.097 0 2.119 0.321 2.977 0.875v0 0zM10 26c-0.552 0-1 0.444-1 1 0 0.552 0.444 1 1 1 0.552 0 1-0.444 1-1 0-0.552-0.444-1-1-1v0zM13 29c-0.552 0-1 0.444-1 1 0 0.552 0.444 1 1 1 0.552 0 1-0.444 1-1 0-0.552-0.444-1-1-1v0zM17 26c-0.552 0-1 0.444-1 1 0 0.552 0.444 1 1 1 0.552 0 1-0.444 1-1 0-0.552-0.444-1-1-1v0zM20 29c-0.552 0-1 0.444-1 1 0 0.552 0.444 1 1 1 0.552 0 1-0.444 1-1 0-0.552-0.444-1-1-1v0zM23 26c-0.552 0-1 0.444-1 1 0 0.552 0.444 1 1 1 0.552 0 1-0.444 1-1 0-0.552-0.444-1-1-1v0z"></path>
</svg>
