<?xml version="1.0" encoding="utf-8"?>
<!-- Generated by IcoMoon.io -->
<!DOCTYPE svg PUBLIC "-//W3C//DTD SVG 1.1//EN" "http://www.w3.org/Graphics/SVG/1.1/DTD/svg11.dtd">
<svg version="1.1" xmlns="http://www.w3.org/2000/svg" xmlns:xlink="http://www.w3.org/1999/xlink" width="32" height="32" viewBox="0 0 32 32">
<path fill="#d7d7d8" d="M8.268 24h-0.761c-0.832 0-1.506 0.666-1.506 1.5 0 0.828 0.672 1.5 1.506 1.5h7.987c0.832 0 1.506-0.666 1.506-1.5 0-0.828-0.672-1.5-1.506-1.5h-0.494c0-1.105-0.895-2-2-2-0.412 0-0.794 0.124-1.112 0.338-0.273-0.779-1.015-1.338-1.888-1.338-1.105 0-2 0.895-2 2 0 0.364 0.097 0.706 0.268 1v0zM15.837 23.023c0.679 0.093 1.27 0.456 1.662 0.977h7.498c2.211 0 4.003-1.795 4.003-4 0-1.877-1.299-3.453-3.042-3.884v0c0.028-0.202 0.042-0.407 0.042-0.616 0-2.485-2.015-4.5-4.5-4.5-1.226 0-2.337 0.49-3.148 1.285-0.991-1.949-3.015-3.285-5.352-3.285-3.314 0-6 2.686-6 6 0 0.377 0.035 0.745 0.101 1.102v0c-1.776 0.41-3.101 2.002-3.101 3.898 0 1.49 0.818 2.79 2.028 3.478v0c0.285-0.207 0.615-0.355 0.973-0.428-0-0.017-0-0.034-0-0.051 0-1.657 1.343-3 3-3 0.927 0 1.756 0.42 2.306 1.081 0.223-0.053 0.455-0.081 0.694-0.081 1.315 0 2.432 0.846 2.837 2.023v0 0zM5.341 24.237c-1.407-0.885-2.341-2.451-2.341-4.237 0-2.051 1.24-3.818 3.012-4.588-0.008-0.136-0.012-0.273-0.012-0.412 0-3.866 3.134-7 7-7 1.288 0 2.495 0.348 3.532 0.955 0.36-0.457 0.876-0.784 1.468-0.905v0c-0-0.017-0-0.034-0-0.051 0-1.657 1.343-3 3-3 0.927 0 1.756 0.42 2.306 1.081 0.223-0.053 0.455-0.081 0.694-0.081 1.315 0 2.432 0.846 2.837 2.023v0c1.223 0.167 2.163 1.212 2.163 2.477 0 1.39-1.122 2.5-2.507 2.5h-0.093c0.371 0.726 0.586 1.546 0.599 2.415 1.768 0.771 3.001 2.534 3.001 4.585 0 2.756-2.238 5-4.999 5h-7.051c0.033 0.162 0.050 0.329 0.050 0.5 0 1.39-1.122 2.5-2.507 2.5h-7.987c-1.387 0-2.507-1.119-2.507-2.5 0-0.462 0.124-0.894 0.341-1.263v0 0zM25.743 12h0.751c0.832 0 1.506-0.666 1.506-1.5 0-0.828-0.672-1.5-1.506-1.5h-0.494c0-1.105-0.895-2-2-2-0.412 0-0.794 0.124-1.112 0.338-0.273-0.779-1.015-1.338-1.888-1.338-1.105 0-2 0.895-2 2 0 0.364 0.097 0.706 0.268 1v0h-0.761c-0.459 0-0.87 0.202-1.146 0.524v0c0.471 0.376 0.892 0.81 1.253 1.294 0.839-0.518 1.828-0.817 2.886-0.817 1.708 0 3.234 0.778 4.243 2v0 0z"></path>
</svg>
