<?xml version="1.0" encoding="utf-8"?>
<!-- Generated by IcoMoon.io -->
<!DOCTYPE svg PUBLIC "-//W3C//DTD SVG 1.1//EN" "http://www.w3.org/Graphics/SVG/1.1/DTD/svg11.dtd">
<svg version="1.1" xmlns="http://www.w3.org/2000/svg" xmlns:xlink="http://www.w3.org/1999/xlink" width="32" height="32" viewBox="0 0 32 32">
<path fill="#d7d7d8" d="M15 27.25l-3.25-3.25-0.75 0.75 4.5 4.5 4.5-4.5-0.75-0.75-3.25 3.25v-11.25h-1v11.25zM14 22h-6.997c-2.205 0-4.003-1.791-4.003-4 0-1.895 1.325-3.488 3.101-3.898v0c-0.066-0.357-0.101-0.726-0.101-1.102 0-3.314 2.686-6 6-6 2.615 0 4.84 1.673 5.661 4.008 0.774-0.63 1.762-1.008 2.839-1.008 2.358 0 4.293 1.814 4.484 4.123v0c1.73 0.44 3.016 2.009 3.016 3.877 0 2.205-1.792 4-4.003 4h-6.997v1h7.001c2.761 0 4.999-2.244 4.999-5 0-2.096-1.287-3.892-3.117-4.634v0c-0.523-2.493-2.734-4.366-5.383-4.366-0.863 0-1.679 0.199-2.406 0.553-1.203-2.121-3.481-3.553-6.094-3.553-3.866 0-7 3.134-7 7 0 0.138 0.004 0.275 0.012 0.412v0c-1.772 0.77-3.012 2.538-3.012 4.588 0 2.761 2.232 5 4.999 5h7.001v-1z"></path>
</svg>
