<?xml version="1.0" encoding="utf-8"?>
<!-- Generated by IcoMoon.io -->
<!DOCTYPE svg PUBLIC "-//W3C//DTD SVG 1.1//EN" "http://www.w3.org/Graphics/SVG/1.1/DTD/svg11.dtd">
<svg version="1.1" xmlns="http://www.w3.org/2000/svg" xmlns:xlink="http://www.w3.org/1999/xlink" width="32" height="32" viewBox="0 0 32 32">
<path fill="#d7d7d8" d="M29.9 21c0.066-0.323 0.1-0.658 0.1-1h-27c0 0.342 0.034 0.677 0.1 1h26.8zM29.583 22c-0.156 0.357-0.353 0.692-0.584 1v0l-24.999 0.003c-0.232-0.309-0.429-0.645-0.585-1.003h26.168zM17.899 10c0.259 0.253 0.498 0.527 0.715 0.817 0.839-0.518 1.828-0.817 2.886-0.817 1.177 0 2.268 0.37 3.163 1v0h-17.408c0.251-0.359 0.534-0.694 0.846-1h9.798zM16.608 9c-1.054-0.635-2.288-1-3.608-1s-2.554 0.365-3.608 1h7.215zM25.743 12c0.254 0.307 0.475 0.642 0.657 1v0h-20.11c0.103-0.345 0.231-0.679 0.384-1h19.069zM26.793 14c0.091 0.322 0.154 0.657 0.185 1v0h-20.978c0-0.34 0.024-0.673 0.071-1h20.722zM28 15.998c0.38 0.285 0.717 0.623 1.002 1.002v0h-25.001c0.285-0.379 0.622-0.715 1-1l22.998-0.002zM29.585 18c0.138 0.317 0.245 0.652 0.315 1v0h-26.8c0.071-0.348 0.178-0.682 0.317-1h26.168zM27.998 24c-0.835 0.628-1.873 1-2.998 1h-17.001c-1.128 0-2.167-0.372-3.003-1h23.002z"></path>
</svg>
