<?xml version="1.0" encoding="utf-8"?>
<!-- Generated by IcoMoon.io -->
<!DOCTYPE svg PUBLIC "-//W3C//DTD SVG 1.1//EN" "http://www.w3.org/Graphics/SVG/1.1/DTD/svg11.dtd">
<svg version="1.1" xmlns="http://www.w3.org/2000/svg" xmlns:xlink="http://www.w3.org/1999/xlink" width="32" height="32" viewBox="0 0 32 32">
<path fill="#d7d7d8" d="M3.1 22c0.071-0.348 0.178-0.682 0.317-1v0h26.168c0.138 0.317 0.245 0.652 0.315 1h-26.8zM3 23c0 0.342 0.034 0.677 0.1 1v0h26.8c0.066-0.323 0.1-0.658 0.1-1h-27zM8.101 13c-0.312 0.306-0.596 0.641-0.846 1v0h18.488c0.513-0.621 0.892-1.357 1.094-2.163 0.088-0.351 0.142-0.716 0.158-1.091-0.468 0.165-0.971 0.254-1.495 0.254-2.485 0-4.5-2.015-4.5-4.5 0-0.524 0.090-1.027 0.254-1.495-0.375 0.016-0.739 0.070-1.091 0.158-2.392 0.597-4.163 2.76-4.163 5.336 0 0.427 0.049 0.843 0.141 1.243-0.945-0.475-2.012-0.743-3.141-0.743-1.32 0-2.554 0.365-3.608 1h7.864c-0.166-0.469-0.256-0.974-0.256-1.5 0-1.961 1.255-3.63 3.005-4.246-0.004 0.082-0.005 0.163-0.005 0.246 0 3.038 2.462 5.5 5.5 5.5 0.082 0 0.164-0.002 0.246-0.005-0.258 0.732-0.699 1.377-1.269 1.88v0c-0.858-0.553-1.88-0.875-2.977-0.875-1.059 0-2.047 0.299-2.886 0.817-0.217-0.291-0.456-0.564-0.715-0.817h-9.798zM6.674 15c-0.152 0.321-0.281 0.655-0.384 1v0h20.11c-0.183-0.358-0.404-0.693-0.657-1h-19.069zM6.071 17c-0.047 0.327-0.071 0.66-0.071 1v0h20.978c-0.031-0.343-0.093-0.678-0.185-1h-20.722zM5.002 19c-0.379 0.285-0.716 0.621-1 1v0h25.001c-0.285-0.38-0.622-0.717-1.002-1.002v0.002h-22.998zM4 26.003c-0.232-0.309-0.429-0.645-0.585-1.003v0h26.168c-0.156 0.357-0.353 0.692-0.584 1l-24.999 0.003zM4.997 27c0.835 0.628 1.875 1 3.003 1h17.001c1.125 0 2.163-0.372 2.998-1h-23.002z"></path>
</svg>
