<?xml version="1.0" encoding="utf-8"?>
<!-- Generated by IcoMoon.io -->
<!DOCTYPE svg PUBLIC "-//W3C//DTD SVG 1.1//EN" "http://www.w3.org/Graphics/SVG/1.1/DTD/svg11.dtd">
<svg version="1.1" xmlns="http://www.w3.org/2000/svg" xmlns:xlink="http://www.w3.org/1999/xlink" width="32" height="32" viewBox="0 0 32 32">
<path fill="#d7d7d8" d="M26.999 14.415c1.768 0.771 3.001 2.534 3.001 4.585 0 2.756-2.238 5-4.999 5h-17.001c-2.767 0-4.999-2.239-4.999-5 0-2.051 1.24-3.818 3.012-4.588v0c-0.008-0.136-0.012-0.273-0.012-0.412 0-3.866 3.134-7 7-7 2.298 0 4.337 1.107 5.614 2.817 0.839-0.518 1.828-0.817 2.886-0.817 3.009 0 5.454 2.416 5.499 5.415v0zM11 26.634v-1.136c0-0.275-0.232-0.498-0.5-0.498-0.276 0-0.5 0.215-0.5 0.498v1.136l-0.984-0.568c-0.238-0.137-0.547-0.048-0.681 0.184-0.138 0.239-0.064 0.54 0.181 0.682l0.984 0.568-0.984 0.568c-0.238 0.137-0.315 0.45-0.181 0.682 0.138 0.239 0.436 0.326 0.681 0.184l0.984-0.568v1.136c0 0.275 0.232 0.498 0.5 0.498 0.276 0 0.5-0.215 0.5-0.498v-1.136l0.984 0.568c0.238 0.137 0.547 0.048 0.681-0.184 0.138-0.239 0.064-0.54-0.181-0.682l-0.984-0.568 0.984-0.568c0.238-0.137 0.315-0.45 0.181-0.682-0.138-0.239-0.436-0.326-0.681-0.184l-0.984 0.568zM23 26.634v-1.136c0-0.275-0.232-0.498-0.5-0.498-0.276 0-0.5 0.215-0.5 0.498v1.136l-0.984-0.568c-0.238-0.137-0.547-0.048-0.681 0.184-0.138 0.239-0.064 0.54 0.181 0.682l0.984 0.568-0.984 0.568c-0.238 0.137-0.315 0.45-0.181 0.682 0.138 0.239 0.436 0.326 0.681 0.184l0.984-0.568v1.136c0 0.275 0.232 0.498 0.5 0.498 0.276 0 0.5-0.215 0.5-0.498v-1.136l0.984 0.568c0.238 0.137 0.547 0.048 0.681-0.184 0.138-0.239 0.064-0.54-0.181-0.682l-0.984-0.568 0.984-0.568c0.238-0.137 0.315-0.45 0.181-0.682-0.138-0.239-0.436-0.326-0.681-0.184l-0.984 0.568zM17 27.634v-1.136c0-0.275-0.232-0.498-0.5-0.498-0.276 0-0.5 0.215-0.5 0.498v1.136l-0.984-0.568c-0.238-0.137-0.547-0.048-0.681 0.184-0.138 0.239-0.064 0.54 0.181 0.682l0.984 0.568-0.984 0.568c-0.238 0.137-0.315 0.45-0.181 0.682 0.138 0.239 0.436 0.326 0.681 0.184l0.984-0.568v1.136c0 0.275 0.232 0.498 0.5 0.498 0.276 0 0.5-0.215 0.5-0.498v-1.136l0.984 0.568c0.238 0.137 0.547 0.048 0.681-0.184 0.138-0.239 0.064-0.54-0.181-0.682l-0.984-0.568 0.984-0.568c0.238-0.137 0.315-0.45 0.181-0.682-0.138-0.239-0.436-0.326-0.681-0.184l-0.984 0.568z"></path>
</svg>
