<?xml version="1.0" encoding="utf-8"?>
<!-- Generated by IcoMoon.io -->
<!DOCTYPE svg PUBLIC "-//W3C//DTD SVG 1.1//EN" "http://www.w3.org/Graphics/SVG/1.1/DTD/svg11.dtd">
<svg version="1.1" xmlns="http://www.w3.org/2000/svg" xmlns:xlink="http://www.w3.org/1999/xlink" width="32" height="32" viewBox="0 0 32 32">
<path fill="#d7d7d8" d="M7.101 15.102v0c-0.066-0.357-0.101-0.726-0.101-1.102 0-3.314 2.686-6 6-6 2.336 0 4.361 1.335 5.352 3.285 0.812-0.795 1.923-1.285 3.148-1.285 2.485 0 4.5 2.015 4.5 4.5 0 0.209-0.014 0.415-0.042 0.616v0c1.743 0.431 3.042 2.006 3.042 3.884 0 2.205-1.792 4-4.003 4h-16.994c-2.205 0-4.003-1.791-4.003-4 0-1.895 1.325-3.488 3.101-3.898zM24.953 10.219c0.031-0.235 0.047-0.475 0.047-0.719 0-3.038-2.462-5.5-5.5-5.5-2.203 0-4.103 1.295-4.981 3.165v0c-0.489-0.108-0.997-0.165-1.519-0.165-3.866 0-7 3.134-7 7 0 0.138 0.004 0.275 0.012 0.412-1.772 0.77-3.012 2.538-3.012 4.588 0 2.761 2.232 5 4.999 5h17.001c2.761 0 4.999-2.244 4.999-5 0-2.052-1.232-3.815-3.001-4.585-0.026-1.695-0.818-3.204-2.046-4.195v0 0zM23.999 9.599v0 0c-0.75-0.383-1.599-0.599-2.499-0.599-1.059 0-2.047 0.299-2.886 0.817-0.789-1.057-1.87-1.884-3.124-2.362 0.745-1.458 2.261-2.456 4.010-2.456 2.485 0 4.5 2.015 4.5 4.5 0 0.033-0 0.066-0.001 0.099zM10.5 25c-0.276 0-0.5 0.216-0.5 0.495v2.009c0 0.274 0.232 0.495 0.5 0.495 0.276 0 0.5-0.216 0.5-0.495v-2.009c0-0.274-0.232-0.495-0.5-0.495v0zM13.5 27c-0.276 0-0.5 0.216-0.5 0.495v2.009c0 0.274 0.232 0.495 0.5 0.495 0.276 0 0.5-0.216 0.5-0.495v-2.009c0-0.274-0.232-0.495-0.5-0.495v0zM16.5 25c-0.276 0-0.5 0.216-0.5 0.495v2.009c0 0.274 0.232 0.495 0.5 0.495 0.276 0 0.5-0.216 0.5-0.495v-2.009c0-0.274-0.232-0.495-0.5-0.495v0zM19.5 27c-0.276 0-0.5 0.216-0.5 0.495v2.009c0 0.274 0.232 0.495 0.5 0.495 0.276 0 0.5-0.216 0.5-0.495v-2.009c0-0.274-0.232-0.495-0.5-0.495v0zM22.5 25c-0.276 0-0.5 0.216-0.5 0.495v2.009c0 0.274 0.232 0.495 0.5 0.495 0.276 0 0.5-0.216 0.5-0.495v-2.009c0-0.274-0.232-0.495-0.5-0.495v0zM19.5 0c-0.276 0-0.5 0.216-0.5 0.495v2.009c0 0.274 0.232 0.495 0.5 0.495 0.276 0 0.5-0.216 0.5-0.495v-2.009c0-0.274-0.232-0.495-0.5-0.495v0zM26.233 2.789c-0.195-0.195-0.506-0.201-0.704-0.003l-1.421 1.421c-0.193 0.193-0.186 0.514 0.003 0.704 0.195 0.195 0.506 0.201 0.704 0.003l1.421-1.421c0.193-0.193 0.186-0.514-0.003-0.704v0zM29.022 9.522c0-0.276-0.216-0.5-0.495-0.5h-2.009c-0.274 0-0.495 0.232-0.495 0.5 0 0.276 0.216 0.5 0.495 0.5h2.009c0.274 0 0.495-0.232 0.495-0.5v0zM12.767 2.789c-0.195 0.195-0.201 0.506-0.003 0.704l1.421 1.421c0.193 0.193 0.514 0.186 0.704-0.003 0.195-0.195 0.201-0.506 0.003-0.704l-1.421-1.421c-0.193-0.193-0.514-0.186-0.704 0.003v0z"></path>
</svg>
