<?xml version="1.0" encoding="utf-8"?>
<!-- Generated by IcoMoon.io -->
<!DOCTYPE svg PUBLIC "-//W3C//DTD SVG 1.1//EN" "http://www.w3.org/Graphics/SVG/1.1/DTD/svg11.dtd">
<svg version="1.1" xmlns="http://www.w3.org/2000/svg" xmlns:xlink="http://www.w3.org/1999/xlink" width="32" height="32" viewBox="0 0 32 32">
<path fill="#d7d7d8" d="M15.837 23.023c1.223 0.167 2.163 1.212 2.163 2.477 0 1.39-1.122 2.5-2.507 2.5h-7.987c-1.387 0-2.507-1.119-2.507-2.5 0-1.216 0.859-2.218 2-2.449v0c-0-0.017-0-0.034-0-0.051 0-1.657 1.343-3 3-3 0.927 0 1.756 0.42 2.306 1.081 0.223-0.053 0.455-0.081 0.694-0.081 1.315 0 2.432 0.846 2.837 2.023v0zM16.554 22.162c1.26 0.399 2.218 1.496 2.411 2.838v0h6.036c2.761 0 4.999-2.244 4.999-5 0-2.052-1.232-3.815-3.001-4.585v0c-0.046-2.998-2.49-5.415-5.499-5.415-1.059 0-2.047 0.299-2.886 0.817-1.276-1.71-3.316-2.817-5.614-2.817-3.866 0-7 3.134-7 7 0 0.138 0.004 0.275 0.012 0.412v0c-1.772 0.77-3.012 2.538-3.012 4.588 0 1.424 0.594 2.709 1.548 3.62 0.364-0.57 0.889-1.029 1.511-1.31v0c0.327-1.88 1.967-3.309 3.941-3.309 1.022 0 1.955 0.383 2.662 1.014 0.112-0.009 0.224-0.014 0.338-0.014 1.547 0 2.888 0.878 3.554 2.162v0 0zM27.425 12.823c0.923-0.367 1.575-1.263 1.575-2.323 0-1.265-0.939-2.31-2.163-2.477v0c-0.405-1.177-1.523-2.023-2.837-2.023-0.239 0-0.471 0.028-0.694 0.081-0.55-0.66-1.379-1.081-2.306-1.081-1.657 0-3 1.343-3 3 0 0.017 0 0.034 0 0.051v0c-0.232 0.047-0.451 0.126-0.655 0.231 0.558 0.361 1.067 0.79 1.518 1.275 0.806-0.358 1.698-0.557 2.637-0.557 2.636 0 4.905 1.569 5.925 3.823v0 0z"></path>
</svg>
