<?xml version="1.0" encoding="utf-8"?>
<!-- Generated by IcoMoon.io -->
<!DOCTYPE svg PUBLIC "-//W3C//DTD SVG 1.1//EN" "http://www.w3.org/Graphics/SVG/1.1/DTD/svg11.dtd">
<svg version="1.1" xmlns="http://www.w3.org/2000/svg" xmlns:xlink="http://www.w3.org/1999/xlink" width="32" height="32" viewBox="0 0 32 32">
<path fill="#d7d7d8" d="M29.986 23.377v0c0.009 0.038 0.014 0.077 0.014 0.118 0 0.078-0.019 0.153-0.052 0.22-0.349 2.416-2.432 4.28-4.948 4.28h-17.001c-2.523 0-4.602-1.861-4.949-4.283-0.032-0.066-0.051-0.139-0.051-0.217 0-0.040 0.005-0.080 0.014-0.118-0.010-0.126-0.014-0.254-0.014-0.382 0-2.051 1.24-3.818 3.012-4.588-0.008-0.136-0.012-0.273-0.012-0.412 0-0.133 0.004-0.265 0.011-0.395-0.007-0.034-0.011-0.069-0.011-0.105 0-0.061 0.011-0.119 0.032-0.174v0c0.339-3.55 3.329-6.326 6.968-6.326 1.129 0 2.196 0.267 3.141 0.743-0.092-0.399-0.141-0.815-0.141-1.243 0-2.577 1.772-4.739 4.163-5.337 0.351-0.088 0.716-0.142 1.091-0.158-0.165 0.468-0.254 0.971-0.254 1.495 0 2.485 2.015 4.5 4.5 4.5 0.524 0 1.027-0.090 1.495-0.254-0.016 0.374-0.070 0.739-0.158 1.091-0.258 1.035-0.81 1.954-1.562 2.663v0c1.043 0.985 1.701 2.373 1.724 3.915 1.768 0.771 3.001 2.534 3.001 4.585 0 0.129-0.005 0.256-0.014 0.382zM4 22.995h25c0-0.345-0.044-0.68-0.126-1h-24.747c-0.083 0.32-0.127 0.655-0.127 1zM4.126 23.995c0.092 0.355 0.231 0.691 0.41 1v0h23.927c0.179-0.31 0.319-0.645 0.41-1h-24.747zM8.528 13.995c-0.274 0.307-0.518 0.642-0.725 1v0h10.395c-0.207-0.358-0.451-0.693-0.725-1h-8.944zM9.682 12.995h6.636c-0.95-0.632-2.091-1-3.318-1s-2.367 0.368-3.318 1zM7.35 15.97c-0.118 0.329-0.208 0.672-0.267 1.025v0h18.661c-0.126-0.356-0.295-0.692-0.502-1h-17.734c-0.055 0-0.108-0.009-0.158-0.025v0 0zM18.671 14.995h5.657c-0.773-0.625-1.757-1-2.829-1s-2.056 0.375-2.829 1zM7 17.995c0 0.341 0.028 0.675 0.083 1h18.89c0.018-0.164 0.027-0.331 0.027-0.5s-0.009-0.336-0.027-0.5h-18.973zM5.375 19.978c-0.332 0.29-0.617 0.633-0.839 1.016v0h23.927c-0.222-0.384-0.507-0.727-0.839-1.016-0.040 0.011-0.082 0.016-0.126 0.016h-21.996c-0.044 0-0.086-0.006-0.126-0.016v0 0zM5.357 25.995c0.706 0.622 1.633 1 2.645 1h16.994c1.014 0 1.941-0.378 2.646-1h-22.286zM24.477 13.869c0.57-0.503 1.011-1.148 1.269-1.88-0.081 0.004-0.163 0.005-0.246 0.005-3.038 0-5.5-2.462-5.5-5.5 0-0.082 0.002-0.164 0.005-0.246-1.751 0.616-3.005 2.285-3.005 4.246 0 0.8 0.209 1.55 0.574 2.201 0.386 0.333 0.734 0.707 1.039 1.116 0.839-0.518 1.828-0.817 2.886-0.817 1.097 0 2.119 0.321 2.977 0.875v0 0z"></path>
</svg>
