<?xml version="1.0" encoding="utf-8"?>
<!-- Generated by IcoMoon.io -->
<!DOCTYPE svg PUBLIC "-//W3C//DTD SVG 1.1//EN" "http://www.w3.org/Graphics/SVG/1.1/DTD/svg11.dtd">
<svg version="1.1" xmlns="http://www.w3.org/2000/svg" xmlns:xlink="http://www.w3.org/1999/xlink" width="32" height="32" viewBox="0 0 32 32">
<path fill="#d7d7d8" d="M26.999 14.415c1.768 0.771 3.001 2.534 3.001 4.585 0 2.756-2.238 5-4.999 5h-17.001c-2.767 0-4.999-2.239-4.999-5 0-2.051 1.24-3.818 3.012-4.588v0c-0.008-0.136-0.012-0.273-0.012-0.412 0-3.866 3.134-7 7-7 2.298 0 4.337 1.107 5.614 2.817 0.839-0.518 1.828-0.817 2.886-0.817 3.009 0 5.454 2.416 5.499 5.415v0zM7 28.857c0-1.444 2.511-3.857 2.511-3.857s2.489 2.414 2.489 3.857c0 1.029-0.813 2.143-2.489 2.143s-2.511-1.029-2.511-2.143v0zM14 29.857c0-1.444 2.511-3.857 2.511-3.857s2.489 2.414 2.489 3.857c0 1.029-0.813 2.143-2.489 2.143s-2.511-1.029-2.511-2.143v0zM21 28.857c0-1.444 2.511-3.857 2.511-3.857s2.489 2.414 2.489 3.857c0 1.029-0.813 2.143-2.489 2.143s-2.511-1.029-2.511-2.143v0z"></path>
</svg>
