<?xml version="1.0" encoding="utf-8"?>
<!-- Generated by IcoMoon.io -->
<!DOCTYPE svg PUBLIC "-//W3C//DTD SVG 1.1//EN" "http://www.w3.org/Graphics/SVG/1.1/DTD/svg11.dtd">
<svg version="1.1" xmlns="http://www.w3.org/2000/svg" xmlns:xlink="http://www.w3.org/1999/xlink" width="32" height="32" viewBox="0 0 32 32">
<path fill="#d7d7d8" d="M7.101 15.097v0 0c-0.066-0.357-0.101-0.726-0.101-1.102 0-3.314 2.686-6 6-6 2.336 0 4.361 1.335 5.352 3.285 0.812-0.795 1.923-1.285 3.148-1.285 2.485 0 4.5 2.015 4.5 4.5 0 0.209-0.014 0.415-0.042 0.616v0c1.743 0.431 3.042 2.006 3.042 3.884 0 2.205-1.792 4-4.003 4h-16.994c-2.205 0-4.003-1.791-4.003-4 0-1.895 1.325-3.488 3.101-3.898zM25.275 10.495c0.752-0.71 1.303-1.628 1.562-2.663 0.088-0.351 0.142-0.716 0.158-1.091-0.468 0.165-0.971 0.254-1.495 0.254-2.485 0-4.5-2.015-4.5-4.5 0-0.524 0.090-1.027 0.254-1.495-0.375 0.016-0.739 0.070-1.091 0.158-2.392 0.597-4.163 2.76-4.163 5.337 0 0.427 0.049 0.843 0.141 1.243-0.945-0.475-2.012-0.743-3.141-0.743-3.866 0-7 3.134-7 7 0 0.138 0.004 0.275 0.012 0.412-1.772 0.77-3.012 2.538-3.012 4.588 0 2.761 2.232 5 4.999 5h17.001c2.761 0 4.999-2.244 4.999-5 0-2.052-1.232-3.815-3.001-4.585-0.023-1.542-0.681-2.93-1.724-3.915v0 0zM24.477 9.869v0 0c-0.858-0.553-1.88-0.875-2.977-0.875-1.059 0-2.047 0.299-2.886 0.817-0.305-0.409-0.654-0.783-1.039-1.116-0.366-0.651-0.574-1.402-0.574-2.201 0-1.961 1.255-3.63 3.005-4.246-0.004 0.082-0.005 0.163-0.005 0.246 0 3.038 2.462 5.5 5.5 5.5 0.082 0 0.164-0.002 0.246-0.005-0.258 0.732-0.699 1.377-1.269 1.88zM10.5 25c-0.276 0-0.5 0.216-0.5 0.495v2.009c0 0.274 0.232 0.495 0.5 0.495 0.276 0 0.5-0.216 0.5-0.495v-2.009c0-0.274-0.232-0.495-0.5-0.495v0zM13.5 27c-0.276 0-0.5 0.216-0.5 0.495v2.009c0 0.274 0.232 0.495 0.5 0.495 0.276 0 0.5-0.216 0.5-0.495v-2.009c0-0.274-0.232-0.495-0.5-0.495v0zM16.5 25c-0.276 0-0.5 0.216-0.5 0.495v2.009c0 0.274 0.232 0.495 0.5 0.495 0.276 0 0.5-0.216 0.5-0.495v-2.009c0-0.274-0.232-0.495-0.5-0.495v0zM19.5 27c-0.276 0-0.5 0.216-0.5 0.495v2.009c0 0.274 0.232 0.495 0.5 0.495 0.276 0 0.5-0.216 0.5-0.495v-2.009c0-0.274-0.232-0.495-0.5-0.495v0zM22.5 25c-0.276 0-0.5 0.216-0.5 0.495v2.009c0 0.274 0.232 0.495 0.5 0.495 0.276 0 0.5-0.216 0.5-0.495v-2.009c0-0.274-0.232-0.495-0.5-0.495v0z"></path>
</svg>
