<?xml version="1.0" encoding="utf-8"?>
<!-- Generated by IcoMoon.io -->
<!DOCTYPE svg PUBLIC "-//W3C//DTD SVG 1.1//EN" "http://www.w3.org/Graphics/SVG/1.1/DTD/svg11.dtd">
<svg version="1.1" xmlns="http://www.w3.org/2000/svg" xmlns:xlink="http://www.w3.org/1999/xlink" width="32" height="32" viewBox="0 0 32 32">
<path fill="#d7d7d8" d="M16 25.050v-11.050h1v11.050l3.25-3.25 0.75 0.75-4.5 4.5-4.5-4.5 0.75-0.75 3.25 3.25zM19 3h-9.991c-1.109 0-2.009 0.898-2.009 2.007v22.985c0 1.109 0.891 2.007 1.997 2.007h15.005c1.103 0 1.997-0.891 1.997-1.997v-17.003h-4.994c-1.108 0-2.006-0.887-2.006-1.998v-6.002zM20 3v5.997c0 0.554 0.451 1.003 0.991 1.003h5.009l-6-7z"></path>
</svg>
